<svg height="85.333328" viewBox="0 0 85.333328 85.333328" width="85.333328" xmlns="http://www.w3.org/2000/svg"><g transform="matrix(.13333333 0 0 -.13333333 0 85.333331)"><path d="m640 320c0-176.73-143.27-320-320-320s-320 143.27-320 320 143.27 320 320 320 320-143.27 320-320" fill="#e1e3cc"/><path d="m470 280c0-11.047-8.953-20-20-20h-260c-11.047 0-20 8.953-20 20v220c0 11.047 8.953 20 20 20h260c11.047 0 20-8.953 20-20z" fill="#495672"/><path d="m320 60c-24.215 0-43.848 19.6328-43.848 43.848 0 3.406.414 6.711 1.172 9.882 4.571-19.3394 21.942-33.73 42.676-33.73s38.105 14.3906 42.676 33.73c.758-3.171 1.172-6.476 1.172-9.882 0-24.2152-19.633-43.848-43.848-43.848m30.387 134.082c-.246 4.926-.387 10.227-.387 15.918 0 0 .102 30 30 30h70c11.047 0 20 8.953 20 20v-20c0-11.047-8.953-20-20-20h-70c-22.973 0-28.355-17.711-29.613-25.918m-60.715 1.148c-3.27 24.766-29.672 24.77-29.672 24.77h-70c-11.047 0-20 8.953-20 20v20 20-20c0-11.047 8.953-20 20-20h70s30 0 30-30c0-5.25-.117-10.172-.328-14.77" fill="#b7b7a7"/><path d="m170 300s0-8.953 0-20v-20c0-11.047 8.953-20 20-20h70s30 0 30-30c0-41.801-7.5-62.574-9.965-68.281l-.597-1.321-.2-.398h.075c-1.989-5.008-3.161-10.434-3.161-16.152 0-24.2152 19.633-43.848 43.848-43.848s43.848 19.6328 43.848 43.848c0 5.718-1.172 11.144-3.16 16.152h.074l-.203.406-.586 1.301c-2.465 5.695-9.973 26.469-9.973 68.293 0 0 .102 30 30 30h70c11.047 0 20 8.953 20 20v20 20z" fill="#e08e4c"/><path d="m470 270h-300v30-10h300c0-2.941 0-6.355 0-10z" fill="#b77744"/><path d="m170 290h300v60h-300z" fill="#fff"/><path d="m469.145 350h-28.29c-.554 1.563-.855 3.246-.855 5v10c0 8.285-6.715 15-15 15s-15-6.715-15-15v-15h-30v15c0 8.285-6.715 15-15 15s-15-6.715-15-15-6.715-15-15-15c-8.285 0-15 6.715-15 15s-6.715 15-15 15h-135v20 40 40c0 11.047 8.953 20 20 20h260c11.047 0 20-8.953 20-20v-125c0-1.754-.301-3.437-.855-5" fill="#404a5f"/><path d="m395 320c-8.285 0-15 6.715-15 15v15h30v-15c0-8.285-6.715-15-15-15m60 20c-6.531 0-12.086 4.176-14.145 10h28.29c-2.059-5.824-7.614-10-14.145-10" fill="#d4d3d1"/><g fill="#c84755"><path d="m470 375c0-8.285-6.715-15-15-15s-15 6.715-15 15v60c0 8.285 6.715 15 15 15s15-6.715 15-15z"/><path d="m410 355c0-8.285-6.715-15-15-15s-15 6.715-15 15v60c0 8.285 6.715 15 15 15s15-6.715 15-15z"/><path d="m440 430c0-8.285-6.715-15-15-15v-5c-8.285 0-15 11.715-15 20v-45c0 8.285 6.715 15 15 15s15-6.715 15-15z"/><path d="m350 385c0-8.285-6.715-15-15-15s-15 6.715-15 15v60c0 8.285 6.715 15 15 15s15-6.715 15-15z"/><path d="m380 430c0-8.285-6.715-15-15-15v-5c-8.285 0-15 11.715-15 20v-45c0 8.285 6.715 15 15 15s15-6.715 15-15z"/><path d="m320 430c0-8.285-6.715-15-15-15v-5c-8.285 0 0 11.715 0 20v-20c0 8.285-8.285-10 0-10s15-6.715 15-15z"/><path d="m470 500c0 11.047-8.953 20-20 20h-260c-11.047 0-20-8.953-20-20v-40h300z"/><path d="m170 500v-80c0-11.047 0-20 0-20h280c11.047 0 20 8.953 20 20v40z"/></g></g></svg>