<svg height="85.333336" viewBox="0 0 85.333336 85.333336" width="85.333336" xmlns="http://www.w3.org/2000/svg"><g transform="matrix(.13333333 0 0 -.13333333 0 85.333333)"><path d="m640 320c0-176.73-143.27-320-320-320s-320 143.27-320 320 143.27 320 320 320 320-143.27 320-320" fill="#7db6d8"/><path d="m320 80s-5.367 24.031-12.254 60.559c-104.719 5.722-187.746 83.754-187.746 179.441 0 99.41 89.543 180 200 180s200-80.59 200-180c0-67.945-41.863-127.059-103.609-157.695-45.938-51.864-96.391-82.305-96.391-82.305" fill="#6594b2"/><path d="m490 352c0-149.629-170-252-170-252s-93.887 420 0 420 170-75.215 170-168" fill="#fff"/><path d="m520 340c0-99.41-89.543-180-200-180s-200 80.59-200 180 89.543 180 200 180 200-80.59 200-180" fill="#fff"/><g fill="#495672"><path d="m340 340c0 11.047-8.953 20-20 20s-20-8.953-20-20 8.953-20 20-20 20 8.953 20 20"/><path d="m420 340c0 11.047-8.953 20-20 20s-20-8.953-20-20 8.953-20 20-20 20 8.953 20 20"/><path d="m260 340c0 11.047-8.953 20-20 20s-20-8.953-20-20 8.953-20 20-20 20 8.953 20 20"/></g></g></svg>