<svg height="85.333336" viewBox="0 0 85.333336 85.333336" width="85.333336" xmlns="http://www.w3.org/2000/svg"><g transform="matrix(.13333333 0 0 -.13333333 0 85.333333)"><path d="m640 320c0-176.73-143.27-320-320-320s-320 143.27-320 320 143.27 320 320 320 320-143.27 320-320" fill="#e1e3cc"/><g fill="#b7b7a7"><path d="m182.984 134.316c-5.062 0-9.976 1.922-13.714 5.442-33.29 31.359-55.7 71.558-64.805 116.25-1.199 5.883.308 11.996 4.109 16.644 3.797 4.649 9.485 7.348 15.489 7.348h51.511c8.989 0 16.875-5.996 19.274-14.656 5.386-19.43 15.398-37.61 28.957-52.578 5.828-6.438 6.84-15.903 2.496-23.426l-25.996-45.024c-3.059-5.293-8.367-8.898-14.414-9.789-.969-.14-1.942-.211-2.907-.211"/><path d="m320 80c-26.156 0-51.684 4.5273-75.871 13.4609-5.531 2.043-9.879 6.418-11.883 11.9651-2.004 5.543-1.461 11.687 1.488 16.797l25.528 44.218c3.644 6.313 10.32 10 17.32 10 1.934 0 3.898-.281 5.824-.867 12.153-3.699 24.797-5.574 37.594-5.574 9.152 0 18.387 1.004 27.441 2.98 1.422.313 2.856.465 4.274.465 7.031 0 13.691-3.726 17.316-10.004l25.977-44.988c3.051-5.289 3.523-11.687 1.273-17.367-2.25-5.6797-6.972-10.0196-12.82-11.7813-20.469-6.1758-41.82-9.3047-63.461-9.3047"/><path d="m515.961 320h-51.512c-9.008 0-16.902 6.02-19.289 14.707-6.293 22.938-18.832 43.676-36.254 59.973-6.793 6.355-8.308 16.55-3.66 24.605l25.563 44.278c2.949 5.109 8.004 8.656 13.812 9.691 1.168.211 2.34.309 3.508.309 4.641 0 9.18-1.614 12.801-4.629 38.289-31.883 64.797-76.266 74.636-124.973 1.188-5.879-.328-11.984-4.125-16.625-3.796-4.645-9.48-7.336-15.48-7.336"/><path d="m276.582 423.559c-7 0-13.676 3.691-17.32 10l-25.528 44.218c-2.949 5.11-3.492 11.254-1.488 16.797 2.004 5.547 6.352 9.922 11.883 11.969 24.187 8.93 49.715 13.457 75.871 13.457 21.641 0 42.992-3.129 63.461-9.305 5.848-1.761 10.57-6.101 12.82-11.781s1.778-12.074-1.273-17.367l-25.977-44.988c-3.625-6.278-10.285-10.004-17.316-10.004-1.418 0-2.852.152-4.274.465-9.054 1.976-18.289 2.98-27.441 2.98-12.797 0-25.441-1.875-37.594-5.574-1.929-.586-3.886-.867-5.824-.867"/><path d="m448.129 126.438c-1.168 0-2.344.101-3.508.308-5.808 1.035-10.863 4.582-13.812 9.692l-25.563 44.277c-4.648 8.055-3.133 18.25 3.66 24.605 17.422 16.297 29.961 37.035 36.254 59.973 2.387 8.687 10.281 14.707 19.289 14.707h51.512c6 0 11.684-2.691 15.48-7.336 3.797-4.641 5.313-10.746 4.125-16.625-9.839-48.703-36.347-93.09-74.636-124.973-3.621-3.015-8.16-4.628-12.801-4.628"/><path d="m175.574 320h-51.511c-6.004 0-11.692 2.699-15.489 7.348-3.801 4.652-5.308 10.761-4.109 16.644 9.105 44.692 31.515 84.891 64.805 116.25 3.738 3.52 8.652 5.442 13.714 5.442.965 0 1.938-.071 2.907-.211 6.047-.891 11.355-4.496 14.414-9.789l25.996-45.024c4.344-7.523 3.332-16.988-2.496-23.426-13.559-14.968-23.571-33.148-28.957-52.578-2.399-8.66-10.285-14.656-19.274-14.656"/></g><path d="m194.848 285.344c-2.399 8.66-10.285 14.656-19.274 14.656h-51.511c-6.004 0-11.692-2.699-15.489-7.348-3.801-4.648-5.308-10.761-4.109-16.644 9.105-44.692 31.515-84.891 64.805-116.25 3.738-3.52 8.652-5.442 13.714-5.442.965 0 1.938.071 2.907.211 6.047.891 11.355 4.496 14.414 9.789l25.996 45.024c4.344 7.523 3.332 16.988-2.496 23.426-13.559 14.968-23.571 33.148-28.957 52.578" fill="#7db6d8"/><path d="m369.031 183.441c-3.625 6.278-10.285 10.004-17.316 10.004-1.418 0-2.852-.152-4.274-.465-9.054-1.976-18.289-2.98-27.441-2.98-12.797 0-25.441 1.875-37.594 5.574-1.926.586-3.89.867-5.824.867-7 0-13.676-3.687-17.32-10l-25.528-44.218c-2.949-5.11-3.492-11.254-1.488-16.797 2.004-5.547 6.352-9.922 11.883-11.965 24.187-8.934 49.715-13.461 75.871-13.461 21.641 0 42.992 3.129 63.461 9.305 5.848 1.761 10.57 6.101 12.82 11.781s1.778 12.078-1.273 17.367z" fill="#77caa9"/><path d="m445.16 354.707c2.387-8.687 10.281-14.707 19.289-14.707h51.512c6 0 11.684 2.691 15.48 7.336 3.797 4.641 5.313 10.746 4.125 16.625-9.839 48.707-36.347 93.09-74.636 124.973-3.621 3.015-8.16 4.629-12.801 4.629-1.168 0-2.34-.098-3.508-.309-5.808-1.035-10.863-4.582-13.812-9.691l-25.563-44.278c-4.648-8.055-3.133-18.25 3.66-24.605 17.422-16.297 29.961-37.035 36.254-59.973" fill="#e08e4c"/><path d="m383.461 530.695c-20.469 6.176-41.82 9.305-63.461 9.305-26.156 0-51.684-4.527-75.871-13.457-5.531-2.047-9.879-6.422-11.883-11.969-2.004-5.543-1.461-11.687 1.488-16.797l25.528-44.218c3.644-6.309 10.32-10 17.32-10 1.938 0 3.895.281 5.824.867 12.153 3.699 24.797 5.574 37.594 5.574 9.152 0 18.387-1.004 27.441-2.98 1.422-.313 2.856-.465 4.274-.465 7.031 0 13.691 3.726 17.316 10.004l25.977 44.988c3.051 5.293 3.523 11.687 1.273 17.367s-6.972 10.02-12.82 11.781" fill="#c84755"/><path d="m515.961 300h-51.512c-9.008 0-16.902-6.02-19.289-14.707-6.293-22.938-18.832-43.676-36.254-59.973-6.793-6.355-8.308-16.55-3.66-24.605l25.563-44.277c2.949-5.11 8.004-8.657 13.812-9.692 1.164-.207 2.34-.308 3.508-.308 4.641 0 9.18 1.613 12.801 4.628 38.289 31.883 64.797 76.27 74.636 124.973 1.188 5.879-.328 11.984-4.125 16.625-3.796 4.645-9.48 7.336-15.48 7.336" fill="#f3cc70"/><path d="m200.305 475.684c-3.059 5.293-8.367 8.898-14.414 9.789-.969.14-1.942.211-2.907.211-5.062 0-9.976-1.922-13.714-5.442-33.29-31.359-55.7-71.558-64.805-116.25-1.199-5.883.308-11.992 4.109-16.644 3.797-4.649 9.485-7.348 15.489-7.348h51.511c8.989 0 16.875 5.996 19.274 14.656 5.386 19.43 15.398 37.61 28.957 52.578 5.828 6.438 6.84 15.903 2.496 23.426z" fill="#495672"/></g></svg>