<svg height="85.333336" viewBox="0 0 85.333336 85.333336" width="85.333336" xmlns="http://www.w3.org/2000/svg"><g transform="matrix(.13333333 0 0 -.13333333 0 85.333333)"><path d="m640 320c0-176.73-143.27-320-320-320s-320 143.27-320 320 143.27 320 320 320 320-143.27 320-320" fill="#77caa9"/><path d="m420 100h-200c-11.047 0-20 8.953-20 20s8.953 20 20 20h200c11.047 0 20-8.953 20-20s-8.953-20-20-20" fill="#62a48d"/><path d="m440 140c0-11.047-8.953-20-20-20h-200c-11.047 0-20 8.953-20 20s8.953 20 20 20h200c11.047 0 20-8.953 20-20" fill="#fff"/><path d="m370 220s-10-60 30-60h-160c40 0 30 60 30 60z" fill="#e1e3cc"/><path d="m480 200h-111.016c-.48 11.016 1.016 20 1.016 20h110c22.09 0 40 17.91 40 40v-20c0-22.09-17.91-40-40-40m-208.984 0h-111.016c-22.09 0-40 17.91-40 40v220-200c0-22.09 17.91-40 40-40h110s1.496-8.984 1.016-20" fill="#62a48d"/><path d="m368.984 200h-97.968c.48 11.016-1.016 20-1.016 20h100s-1.496-8.984-1.016-20" fill="#b7b7a7"/><path d="m160 235c-13.789 0-25 11.211-25 25v220c0 13.789 11.211 25 25 25h320c13.789 0 25-11.211 25-25v-220c0-13.789-11.211-25-25-25z" fill="#495672"/><path d="m480 520h-320c-22.09 0-40-17.91-40-40v-220c0-22.09 17.91-40 40-40h320c22.09 0 40 17.91 40 40v220c0 22.09-17.91 40-40 40m0-30c5.516 0 10-4.484 10-10v-220c0-5.516-4.484-10-10-10h-320c-5.516 0-10 4.484-10 10v220c0 5.516 4.484 10 10 10z" fill="#fff"/><path d="m480 250h-73.027l-138.032 240h211.059c5.516 0 10-4.484 10-10v-220c0-5.516-4.484-10-10-10" fill="#6c7990"/><path d="m500.012 241.215h-87.985l-5.054 8.785h73.027c5.516 0 10 4.484 10 10v220c0 5.516-4.484 10-10 10h-211.059l-6.441 11.195h237.512z" fill="#fff"/></g></svg>