<svg height="85.333328" viewBox="0 0 85.333328 85.333328" width="85.333328" xmlns="http://www.w3.org/2000/svg"><g transform="matrix(.13333333 0 0 -.13333333 0 85.333331)"><path d="m640 320c0-176.73-143.27-320-320-320s-320 143.27-320 320 143.27 320 320 320 320-143.27 320-320" fill="#495672"/><g fill="#404a5f"><path d="m190.016 84.9961c-1.094 0-2.2.1211-3.305.3711-8.09 1.8164-13.16 9.8437-11.344 17.9258l1.953 8.691c2.055-3.246 5.344-5.707 9.387-6.617 1.109-.25 2.215-.371 3.309-.371 6.859 0 13.05 4.738 14.617 11.711l20.082 89.25c1.348-.508 2.789-.824 4.293-.926l-24.375-108.3201c-1.567-6.9765-7.758-11.7148-14.617-11.7148m96.359 375.0039h-4.5l10.805 48.016c2.047-3.243 2.863-7.27 1.953-11.305z"/><path d="m449.984 84.9961c-7.004 0-13.265 4.9297-14.691 12.0664l-21.676 108.3755c1.313.324 2.555.824 3.703 1.468l17.969-89.847c1.43-7.129 7.691-12.059 14.695-12.059.977 0 1.965.094 2.957.293 4.301.859 7.801 3.48 9.903 6.961l1.863-9.316c1.625-8.1177-3.644-16.0239-11.769-17.645-.989-.1992-1.981-.2969-2.954-.2969m-83.281 375.0039h-4l-7.41 37.063c-.766 3.816-.004 7.589 1.859 10.679z"/><path d="m320 85c-8.285 0-15 6.7148-15 15v105-85c0-8.285 6.715-15 15-15s15 6.715 15 15v-20c0-8.2852-6.715-15-15-15"/></g><path d="m280 520-90-400z" fill="#f3cc70"/><path d="m265.367 523.293-90-400c-1.82-8.082 3.258-16.109 11.34-17.926 8.082-1.82 16.109 3.258 17.926 11.34l90 400c1.82 8.082-3.258 16.109-11.34 17.926-8.082 1.82-16.109-3.258-17.926-11.34" fill="#e08e4c"/><path d="m370 520 80-400z" fill="#f3cc70"/><path d="m355.289 517.059 80-400c1.629-8.125 9.527-13.391 17.652-11.766s13.391 9.527 11.77 17.648l-80 400c-1.625 8.125-9.527 13.395-17.652 11.77s-13.391-9.527-11.77-17.652" fill="#e08e4c"/><path d="m305 286.246v-166.246c0-8.285 6.715-15 15-15s15 6.715 15 15v166.246c0 8.285-6.715 15-15 15s-15-6.715-15-15" fill="#e08e4c"/><path d="m468.75 220h-23.453l-4 20h27.453c11.734 0 21.25 7.871 21.25 17.582v-20c0-9.711-9.516-17.582-21.25-17.582m-61.047 15h-72.703v5h71.703z" fill="#404a5f"/><path d="m411.723 234.902c-.567.067-1.141.098-1.723.098h-2.297l-1 5h4z" fill="#394051"/><path d="m197.125 220h-25.875c-11.734 0-21.25 7.871-21.25 17.582v184.836-164.836c0-9.711 9.516-17.582 21.25-17.582h30.375zm107.875 15h-69.25l1.125 5h68.125z" fill="#404a5f"/><path d="m235.75 235h-4.5l1.125 5h4.5z" fill="#394051"/><path d="m215 220h-17.875l4.5 20h30.75l-1.125-5h-1.25c-8.285 0-15-6.715-15-15" fill="#b77744"/><path d="m445.297 220h-20.297c0 7.703-5.805 14.047-13.277 14.902l-1.02 5.098h30.594z" fill="#b77744"/><path d="m305 235h30v5h-30z" fill="#b77744"/><path d="m490 257.582c0-9.711-9.516-17.582-21.25-17.582h-297.5c-11.734 0-21.25 7.871-21.25 17.582v184.836c0 9.711 9.516 17.582 21.25 17.582h297.5c11.734 0 21.25-7.871 21.25-17.582z" fill="#fff"/><path d="m410 425h-180c-8.285 0-15 6.715-15 15s6.715 15 15 15h180c8.285 0 15-6.715 15-15s-6.715-15-15-15" fill="#d4d3d1"/><path d="m410 205h-75v15h75.703l2.914-14.562c-1.156-.286-2.371-.438-3.617-.438m-105 0h-75c-.336 0-.664.012-.992.031l3.367 14.969h72.625z" fill="#404a5f"/><path d="m229.008 205.031c-1.504.102-2.945.418-4.293.926l3.16 14.043h4.5z" fill="#394051"/><path d="m413.617 205.438-2.914 14.562h4l2.617-13.094c-1.148-.644-2.39-1.144-3.703-1.468" fill="#394051"/><path d="m224.715 205.957c-5.68 2.137-9.715 7.617-9.715 14.043h12.875z" fill="#b77744"/><path d="m417.32 206.906-2.617 13.094h10.297c0-5.629-3.098-10.527-7.68-13.094" fill="#b77744"/><path d="m305 205h30v15h-30z" fill="#b77744"/><path d="m410.703 220h-75.703v15h72.703z" fill="#394051"/><path d="m414.703 220h-4l-3 15h2.297c.582 0 1.156-.031 1.723-.098z" fill="#343945"/><path d="m305 220h-72.625l3.375 15h69.25z" fill="#394051"/><path d="m232.375 220h-4.5l3.375 15h4.5z" fill="#343945"/><path d="m227.875 220h-12.875c0 8.285 6.715 15 15 15h1.25z" fill="#97633d"/><path d="m425 220h-10.297l-2.98 14.902c7.472-.855 13.277-7.199 13.277-14.902" fill="#97633d"/><path d="m305 220h30v15h-30z" fill="#97633d"/><path d="m230 440h180c8.285 0 15 6.715 15 15s-6.715 15-15 15h-180c-8.285 0-15-6.715-15-15s6.715-15 15-15" fill="#f3cc70"/><path d="m230 220h180c8.285 0 15 6.715 15 15s-6.715 15-15 15h-180c-8.285 0-15-6.715-15-15s6.715-15 15-15" fill="#f3cc70"/><path d="m207.801 272.18.789 1.285c3.969 6.422 22.469 35.992 42.765 63.523 10.122 13.746 20.75 27.008 29.805 36.289 4.496 4.629 8.633 8.25 11.625 10.301 1.481 1.027 2.664 1.652 3.238 1.883l.301.113.043.016-.953 3.699v-3.793l.953.094-.953 3.699v-3.793 7.832l-4.312-6.469c1.39-.976 3.328-1.406 4.312-1.363v7.832l-4.312-6.469 3.652 5.481-5.59-3.594c.238-.379.883-1.191 1.938-1.887l3.652 5.481-5.59-3.594 2.094 1.348-2.242-1.086.148-.262 2.094 1.348-2.242-1.086.168-.492c.347-1.114.836-4.075.816-8.516.008-30.602-.027-52.41 1.16-67.699.656-7.727 1.406-13.719 3.528-19.668 1.125-2.965 2.625-6.168 5.808-9.336 1.582-1.559 3.649-3.031 6.035-4.027 2.375-1.012 5.004-1.493 7.383-1.481 2.969.004 5.512.656 7.617 1.461 3.168 1.242 5.532 2.813 7.75 4.496 2.203 1.699 4.235 3.563 6.321 5.645 5.41 5.418 12.203 12.836 20.355 21.293 12.184 12.656 27.301 27.492 43.461 39.781 16.125 12.34 33.316 21.859 48.523 24.828 8.122 1.625 13.391 9.527 11.766 17.648-1.625 8.125-9.527 13.391-17.648 11.766-14.864-2.988-28.84-9.41-41.907-17.371-19.578-11.973-37.246-27.547-52.05-41.969-14.739-14.383-26.762-27.832-33.707-34.762-1.926-1.941-3.438-3.152-3.942-3.464l-.129-.082-.008-.004 3.598-6.637v7.367c-2.465-.035-3.535-.722-3.598-.73l3.598-6.637v7.367-10.957l4.25 10.094c-1.398.598-2.98.875-4.25.863v-10.957l4.25 10.094-3.668-8.715 8.172 5.07c-.367.625-1.789 2.504-4.504 3.645l-3.668-8.715 8.172 5.07-3.68-2.281 3.864 1.957-.184.324-3.68-2.281 3.864 1.957-.926-.465.957.403-.031.062-.926-.465.957.403c-.117.16-.836 2.597-1.285 6.425-.735 5.789-1.184 14.778-1.387 26.563-.211 11.805-.211 26.48-.211 44.121-.082 8.523-.812 15.488-4.145 22.41-1.695 3.414-4.335 6.899-8.113 9.41-3.75 2.547-8.371 3.723-12.328 3.676-4.512-.023-8.258-1.18-11.57-2.617-6.184-2.77-11.34-6.727-16.703-11.473-9.274-8.316-18.813-19.324-28.364-31.41-28.48-36.137-56.406-81.922-56.578-82.176-4.32-7.066-2.09-16.3 4.981-20.621 7.066-4.316 16.3-2.09 20.621 4.981" fill="#c84755"/></g></svg>