<svg height="85.333328" viewBox="0 0 85.333328 85.333328" width="85.333328" xmlns="http://www.w3.org/2000/svg"><g transform="matrix(.13333333 0 0 -.13333333 0 85.333331)"><path d="m640 320c0-176.73-143.27-320-320-320s-320 143.27-320 320 143.27 320 320 320 320-143.27 320-320" fill="#7db6d8"/><path d="m480 160h-320c-22.09 0-40 17.91-40 40v200-180c0-21.992 17.746-39.84 39.699-40h.012.055.031.019.047.008.059.011.059 320 .059.011.059.008.047.019.031.055.012c21.953.16 39.699 18.008 39.699 40v-20c0-22.09-17.91-40-40-40" fill="#6594b2"/><path d="m520 220c0-22.09-17.91-40-40-40h-320c-22.09 0-40 17.91-40 40v200c0 22.09 17.91 40 40 40h320c22.09 0 40-17.91 40-40z" fill="#e1e3cc"/><path d="m513.277 200.398c-1.109 1.36-2.343 2.735-3.777 4.141l-142.875 106.938 10.078 8.523 132.797-112.281c1.797-1.989 3.277-3.934 4.605-5.844-.265-.5-.542-.992-.828-1.477m-386.554 0c-.285.485-.563.977-.828 1.477 1.328 1.91 2.808 3.855 4.605 5.844l132.949 112.414 10.016-8.594-142.965-107c-1.434-1.406-2.664-2.781-3.777-4.141" fill="#b7b7a7"/><path d="m355.234 320c-19.379 18.996-51.089 18.996-70.468 0l-154.266-115.461c-1.797-1.762-3.277-3.48-4.605-5.176 7.011-11.562 19.593-19.363 34.105-19.363h320c14.512 0 27.094 7.801 34.105 19.363-1.328 1.696-2.808 3.414-4.605 5.176z" fill="#e1e3cc"/><path d="m159.949 460h.051c-.016 0-.035 0-.051 0m320.102 0c-.016 0-.031 0-.051 0z" fill="#6594b2"/><path d="m376.703 320-21.469 18.152c-9.687 10.731-22.461 16.094-35.234 16.094s-25.547-5.363-35.234-16.094l-21.317-18.019-137.554 117.992c7 13.047 19.566 21.855 34.054 21.875h.051 320 .051c14.488-.02 27.051-8.828 34.054-21.875-1.328-1.91-2.808-3.855-4.605-5.844z" fill="#b7b7a7"/><path d="m366.625 311.477-11.391 8.523c-9.687 9.496-22.461 14.246-35.234 14.246s-25.547-4.75-35.234-14.246l-11.301-8.461-10.016 8.594 21.317 18.019c9.687 10.731 22.461 16.094 35.234 16.094s25.547-5.363 35.234-16.094l21.469-18.152z" fill="#97978c"/><path d="m320 285.754c-12.773 0-25.547 5.363-35.234 16.094l-11.301 9.691 11.301 8.461c9.687 9.496 22.461 14.246 35.234 14.246s25.547-4.75 35.234-14.246l11.391-8.523-11.391-9.629c-9.687-10.731-22.461-16.094-35.234-16.094" fill="#b7b7a7"/><path d="m284.766 320c19.379-18.996 51.089-18.996 70.468 0l154.266 115.461c1.797 1.762 3.277 3.48 4.605 5.176-7.011 11.562-19.593 19.363-34.105 19.363h-320c-14.512 0-27.094-7.801-34.105-19.363 1.328-1.696 2.808-3.414 4.605-5.176z" fill="#fff"/></g></svg>