<svg height="85.333328" viewBox="0 0 85.333328 85.333328" width="85.333328" xmlns="http://www.w3.org/2000/svg"><g transform="matrix(.13333333 0 0 -.13333333 0 85.333331)"><path d="m640 320c0-176.73-143.27-320-320-320s-320 143.27-320 320 143.27 320 320 320 320-143.27 320-320" fill="#7db6d8"/><path d="m320 80.8633c-121.504 0-220 98.4997-220 219.9997 0 121.504 98.496 220 220 220s220-98.496 220-220c0-121.5-98.496-219.9997-220-219.9997m-161.363 258.4257c1.172 0 1.812-.754 1.609-3.191-.687-8.239-5.148-45.649 8.238-47.364 13.383-1.714 22.305-.343 33.289-7.55 10.981-7.207 31.575-7.891 46.332-31.231 14.758-23.336 31.918-26.082 48.391-29.859 16.473-3.774 14.758-13.039 6.176-25.395-8.578-12.355-3.774-25.054-32.602-34.664-28.828-9.609-30.886-33.633-29.859-38.094.211-.91-.176-3.07-.91-5.91 24.73-10.84 52.015-16.8943 80.699-16.8943 56.969 0 108.461 23.7733 145.18 61.8793-4.809 14.879-9.614 31.871-9.785 40.89-.344 18.188 4.804 19.563-1.715 31.574-2.344 4.317-5.575 5.575-9.961 5.575-3.067 0-6.699-.614-10.992-1.231-4.289-.613-9.239-1.23-14.938-1.23-3.133 0-6.496.187-10.098.66-26.082 3.434-21.964 19.906-40.156 42.559-18.187 22.648 16.82 41.183 26.43 64.519 5.191 12.609 19.793 15.801 33.59 15.801 11.738 0 22.894-2.313 27.156-3.102 1.004-.187 1.859-.281 2.609-.281 6.18.004 5.344 6.305 22.785 19.156 19.563 14.414-9.609 14.758-17.503 20.25-2.379 1.657-3.95 2.375-5.137 2.375-2.758 0-3.485-3.863-7.563-8.898-1.246-1.539-2.632-2.168-4.121-2.168-5.476 0-12.32 8.543-18.527 11.777-.965.504-1.832.742-2.637.742-5.789 0-8.105-12.277-16.238-26.136-3.988-6.797-7.277-9.328-10.387-9.328-4.113 0-7.918 4.441-12.609 9.328-8.235 8.578-3.09 16.129 5.492 19.562 8.578 3.43 9.266 4.805 3.09 11.668-6.18 6.863-8.926 4.117-2.746 9.61 6.176 5.492 9.953 4.804 23.336 13.042 10.015 6.165 3.89 11.942-3.567 11.942-2.508 0-5.168-.652-7.414-2.168-1.199-.809-2.441-1.18-3.695-1.18-8.109 0-16.875 15.426-18.957 28.692-2.402 15.32 4.805 10.418 13.043 15.91 1.961 1.308.816 4.414-1.996 8.351-22.371 8.575-46.621 13.317-71.969 13.317-25.043 0-49.016-4.621-71.16-13-3.75-5.188-4.711-9.403 2.082-9.403.402 0 .84.016 1.301.047 10.613.707 15.843 2.235 19.414 2.235 3.351 0 5.234-1.352 8.726-6.008 6.36-8.477 4.438-24.969-5.054-24.969-1.27 0-2.672.297-4.211.945-8.614 3.625-20.965 8.899-29.946 8.899-4.617 0-8.343-1.395-10.207-5.125-3.519-7.039-1.539-10.695 3.137-10.695 2.617 0 6.086 1.144 9.902 3.488 3.754 2.301 7.25 3.402 10.293 3.402 5.586 0 9.657-3.722 10.989-10.609 1.886-9.766 1.464-27.91-7.637-27.91-.816 0-1.699.144-2.66.453-2.578.836-4.77 1.199-6.547 1.199-6.27 0-7.383-4.547-2.031-9.094 4.679-3.98 2.656-6.84-2.485-6.84-2.394 0-5.465.621-8.843 2.039-1.493.625-2.766.895-3.899.895-3.367 0-5.449-2.375-8.121-4.75-2.672-2.379-5.934-4.75-11.656-4.75-.336 0-.684.008-1.035.023-.305.016-.606.024-.899.024-13.558 0-14.637-15.246-19.004-20.957-4.465-5.836-5.148-24.711-6.179-29.172-.473-2.063-1.68-3.902-3.079-3.902-1.632 0-3.519 2.504-4.812 10.078-2.406 14.074.684 20.25-12.016 21.277-.238.02-.476.031-.718.031-12.454 0-24.551-25.785-18.157-31.386 1.473-1.289 3.071-1.727 4.649-1.727 1.672 0 3.324.488 4.797.981 1.468.488 2.757.976 3.703.976m-18.11 53.512c-14.191-27.594-22.257-58.832-22.257-91.938 0-74.277 40.386-139.261 100.32-174.273l-1.031 4.617s-18.532 24.711-20.246 41.527c-1.715 16.817-14.071 26.082-28.489 57.313-14.414 31.23-4.804 34.664-2.398 37.066 2.398 2.403-16.133 12.356-15.446 36.379.688 24.024-19.562 18.531-15.789 43.93 3.239 21.773 7.438 36.941 5.336 45.379" fill="#6594b2"/><path d="m295.043 437.504c-3.91 0-6.285 2.738-2.164 7.726 7.363 8.926 4.644 32.95.527 39.469 0 0-5.492 5.149 6.864 7.207 2.328.391 5.144.617 8.144.617 12.922 0 29.262-4.257 24.805-18.46-5.492-17.504-6.035-12.333-12.356-16.133-6.84-4.114-10.297-6.864-16.133-15.102-2.57-3.629-6.605-5.324-9.687-5.324" fill="#6594b2"/><g fill="#fff"><path d="m240.211 140.211c-1.027 4.461 1.031 28.484 29.859 38.094 28.828 9.609 24.024 22.308 32.602 34.664 8.582 12.355 10.297 21.621-6.176 25.394-16.473 3.778-33.633 6.524-48.391 29.86-14.757 23.34-35.351 24.023-46.332 31.23-10.984 7.207-19.906 5.836-33.289 7.551-13.386 1.719-8.925 39.125-8.238 47.363.688 8.235-8.234-2.746-14.758 2.961-6.519 5.711 6.18 32.387 18.875 31.356 12.7-1.028 9.61-7.207 12.016-21.278 2.398-14.07 6.863-10.636 7.891-6.176 1.031 4.461 1.714 23.336 6.179 29.172 4.461 5.832 5.489 21.621 19.903 20.934 14.414-.688 14.074 13.043 24.711 8.582 10.64-4.465 18.191-1.031 11.328 4.805-6.868 5.832-3.09 11.668 8.578 7.89 11.668-3.773 12.355 16.817 10.297 27.457-2.059 10.641-10.641 13.727-21.282 7.207-10.636-6.519-18.531-3.773-13.039 7.207 5.493 10.985 27.114 1.715 40.153-3.773 13.043-5.492 16.472 14.414 9.265 24.023-7.207 9.61-7.547 5.149-28.14 3.774-8.2-.547-7.36 3.859-3.383 9.355 22.144 8.379 46.117 13 71.16 13 25.348 0 49.598-4.742 71.969-13.316 2.812-3.938 3.957-7.043 1.996-8.352-8.238-5.492-15.445-.59-13.043-15.91s13.726-33.523 22.652-27.512c8.922 6.012 24.364-1.539 10.981-9.773-13.383-8.238-17.16-7.551-23.336-13.043-6.18-5.488-3.434-2.746 2.746-9.609 6.176-6.864 5.488-8.235-3.09-11.668-8.582-3.434-13.727-10.985-5.492-19.563 8.238-8.578 13.726-15.785 22.996 0 9.266 15.789 10.98 29.516 18.875 25.399 7.894-4.121 16.816-16.821 22.648-9.61 5.836 7.207 4.809 12.012 12.7 6.52 7.894-5.492 37.066-5.836 17.503-20.25-19.562-14.414-16.128-20.59-25.394-18.875-9.27 1.715-51.137 10.64-60.746-12.699-9.61-23.336-44.617-41.872-26.43-64.52 18.192-22.652 14.074-39.125 40.156-42.555 26.082-3.433 39.469 8.235 45.989-3.777 6.519-12.012 1.371-13.387 1.715-31.574.171-9.02 4.976-26.012 9.785-40.891-36.719-38.105-88.211-61.879-145.18-61.879-28.684 0-55.969 6.059-80.699 16.899.734 2.836 1.121 4.996.91 5.906zm-99.684 270.859c2.102-8.437-2.097-23.601-5.336-45.379-3.773-25.394 16.477-19.906 15.789-43.929-.687-24.024 17.844-33.977 15.446-36.379-2.406-2.403-12.016-5.832 2.398-37.067 14.418-31.23 26.774-40.496 28.489-57.312 1.714-16.816 20.246-41.527 20.246-41.527l1.031-4.618c-59.934 35.008-100.32 99.996-100.32 174.278 0 33.101 8.066 64.34 22.257 91.933zm179.473 128.067c-121.504 0-220-98.5-220-220 0-121.504 98.496-220.0003 220-220.0003s220 98.4963 220 220.0003c0 121.5-98.496 220-220 220"/><path d="m320.863 476.199c6.321 3.805 6.864-1.371 12.356 16.133s-20.594 19.902-32.949 17.844c-12.356-2.059-6.864-7.207-6.864-7.207 4.117-6.52 6.836-30.543-.527-39.465-7.367-8.926 6.019-10.641 11.851-2.402 5.836 8.234 9.293 10.984 16.133 15.097"/></g></g></svg>